<?xml version="1.0" encoding="utf-8"?>
<svg width="25px" height="25px" viewBox="0 0 25 25" version="1.1" xmlns:xlink="http://www.w3.org/1999/xlink" xmlns="http://www.w3.org/2000/svg">
  <g id="Icon--Calendar-5">
    <g id="Icon--Calendar">
      <path d="M24.994 5.24875L0 5.24875L0 0L24.994 0L24.994 5.24875Z" id="Shape" fill="#D1D1D1" fill-rule="evenodd" stroke="none" />
      <path d="M0 0L4.93532 0L4.93532 5.1825L0 5.1825L0 0Z" transform="translate(0 19.749166)" id="Rectangle-path" fill="#D1D1D1" fill-rule="evenodd" stroke="none" />
      <path d="M0 0L4.93532 0L4.93532 5.18167L0 5.18167L0 0Z" transform="translate(0 13.2725)" id="Rectangle-path" fill="#D1D1D1" fill-rule="evenodd" stroke="none" />
      <path d="M0 0L4.93532 0L4.93532 5.18208L0 5.18208L0 0Z" transform="translate(0 6.795)" id="Rectangle-path" fill="#D1D1D1" fill-rule="evenodd" stroke="none" />
      <path d="M0 0L4.93532 0L4.93532 5.1825L0 5.1825L0 0Z" transform="translate(6.6853175 19.749166)" id="Rectangle-path" fill="#D1D1D1" fill-rule="evenodd" stroke="none" />
      <path d="M0 0L4.93532 0L4.93532 5.18167L0 5.18167L0 0Z" transform="translate(6.6853175 13.2725)" id="Rectangle-path" fill="#D1D1D1" fill-rule="evenodd" stroke="none" />
      <path d="M0 0L4.93532 0L4.93532 5.18208L0 5.18208L0 0Z" transform="translate(6.6853175 6.795)" id="Rectangle-path" fill="#D1D1D1" fill-rule="evenodd" stroke="none" />
      <path d="M0 0L4.93413 0L4.93413 5.1825L0 5.1825L0 0Z" transform="translate(13.373413 19.749166)" id="Rectangle-path" fill="#D1D1D1" fill-rule="evenodd" stroke="none" />
      <path d="M0 0L4.93413 0L4.93413 5.18167L0 5.18167L0 0Z" transform="translate(13.373413 13.2725)" id="Rectangle-path" fill="#D1D1D1" fill-rule="evenodd" stroke="none" />
      <path d="M0 0L4.93413 0L4.93413 5.18208L0 5.18208L0 0Z" transform="translate(13.373413 6.795)" id="Rectangle-path" fill="#D1D1D1" fill-rule="evenodd" stroke="none" />
      <path d="M0 0L4.93532 0L4.93532 5.1825L0 5.1825L0 0Z" transform="translate(20.059128 19.749166)" id="Rectangle-path" fill="#D1D1D1" fill-rule="evenodd" stroke="none" />
      <path d="M0 0L4.93532 0L4.93532 5.18167L0 5.18167L0 0Z" transform="translate(20.059128 13.2725)" id="Rectangle-path" fill="#D1D1D1" fill-rule="evenodd" stroke="none" />
      <path d="M0 0L4.93532 0L4.93532 5.18208L0 5.18208L0 0Z" transform="translate(20.059128 6.795)" id="Rectangle-path" fill="#D1D1D1" fill-rule="evenodd" stroke="none" />
    </g>
  </g>
</svg>